<svg width="1024" height="1024" viewBox="0 0 1024 1024" fill="none" xmlns="http://www.w3.org/2000/svg">
<mask id="mask0_2_13" style="mask-type:alpha" maskUnits="userSpaceOnUse" x="0" y="0" width="1024" height="1024">
<circle cx="512" cy="512" r="468.75" fill="#5B1999" stroke="white" stroke-width="86.5"/>
</mask>
<g mask="url(#mask0_2_13)">
<circle cx="512" cy="512" r="555.25" fill="#5B1999" stroke="white" stroke-width="86.5"/>
<path d="M238.826 291.342C271.794 250.885 313.662 218.591 361.165 196.979C408.667 175.366 460.521 165.018 512.68 166.744C512.68 281.156 513.555 399.983 512.331 514.439C415.319 514.22 187.325 515.226 187.325 515.226C174.767 436.742 193.237 356.45 238.826 291.342ZM343.97 324.787C335.035 331.673 327.829 340.548 322.923 350.706C318.017 360.864 315.547 372.025 315.708 383.305C315.869 394.584 318.658 405.671 323.852 415.685C329.046 425.698 336.503 434.363 345.631 440.991C356.645 449.363 369.791 454.47 383.569 455.73C397.346 456.989 411.2 454.35 423.55 448.114C435.9 441.879 446.248 432.297 453.414 420.462C460.58 408.628 464.275 395.017 464.077 381.184C463.879 367.35 459.797 353.851 452.296 342.226C444.794 330.601 434.176 321.319 421.653 315.439C409.13 309.559 395.206 307.317 381.471 308.97C367.735 310.623 354.74 316.104 343.97 324.787ZM512.855 1304.35C480.859 1304.69 448.894 1302.22 417.33 1296.96C417.33 1301.33 416.98 1309.51 416.805 1313.7C415.887 1338.1 415.319 1390.56 415.319 1390.56H198.124C198.124 1390.56 198.955 1267.67 197.468 1206.33C198.474 1190.29 185.227 1179.71 175.959 1168.6C118.485 1103.7 87.304 1019.69 88.5211 933.002V564.322H512.593C512.331 810.954 512.418 1057.63 512.855 1304.35ZM54.2456 631.78V920.324H-23.9235V631.78H54.2456Z" fill="white" stroke="white" stroke-width="1.5"/>
<path d="M512.462 166.438C600.496 164.007 686.171 195.086 752.172 253.394C785.815 284.913 811.01 324.373 825.444 368.156C836.367 416.337 840.429 465.82 837.511 515.138L512.243 514.351C512.243 514.351 512.462 280.806 512.243 166.394M590.238 321.727C580.668 327.996 572.713 336.435 567.02 346.358C561.326 356.281 558.054 367.407 557.471 378.833C556.887 390.258 559.008 401.66 563.661 412.111C568.314 422.562 575.367 431.768 584.248 438.98C596.731 449.833 612.582 456.036 629.115 456.538C645.648 457.04 661.846 451.81 674.964 441.734C689.853 430.633 699.919 414.247 703.091 395.948C706.262 377.65 702.298 358.832 692.015 343.367C686.946 335.076 680.239 327.907 672.305 322.297C664.37 316.688 655.374 312.756 645.867 310.742C636.361 308.729 626.543 308.676 617.016 310.587C607.488 312.499 598.451 316.334 590.456 321.858L590.238 321.727ZM512.462 564.278H936.534V932.958C937.751 1019.64 906.57 1103.66 849.096 1168.56C839.828 1179.66 826.581 1190.42 827.587 1206.29C826.275 1267.67 827.018 1390.56 827.018 1390.56H609.692C609.692 1390.56 609.255 1338.1 608.381 1313.7C608.381 1309.33 607.944 1301.11 607.856 1296.96C576.292 1302.22 544.327 1304.69 512.331 1304.35C513.03 1057.6 513.074 810.91 512.462 564.278ZM965.607 631.736H1046.92V920.28H964.776L965.607 631.736Z" fill="#D3D4E5"/>
<path d="M512.462 166.438C600.496 164.007 686.171 195.086 752.172 253.394C785.815 284.913 811.01 324.373 825.444 368.156C836.367 416.337 840.429 465.82 837.511 515.138L512.243 514.351C512.243 514.351 512.462 280.806 512.243 166.394M590.237 321.727C580.668 327.996 572.713 336.435 567.019 346.358C561.326 356.281 558.054 367.407 557.471 378.833C556.887 390.258 559.008 401.66 563.661 412.111C568.314 422.563 575.367 431.768 584.248 438.98C596.731 449.833 612.582 456.036 629.115 456.538C645.648 457.04 661.846 451.81 674.964 441.734C689.853 430.633 699.919 414.247 703.091 395.948C706.262 377.65 702.298 358.832 692.015 343.367C686.946 335.076 680.239 327.907 672.305 322.297C664.37 316.688 655.374 312.756 645.867 310.742C636.361 308.729 626.543 308.676 617.016 310.587C607.488 312.499 598.451 316.334 590.456 321.858L590.237 321.727ZM512.462 564.278H936.534V932.958C937.751 1019.64 906.57 1103.66 849.096 1168.56C839.828 1179.66 826.581 1190.42 827.587 1206.29C826.275 1267.67 827.018 1390.56 827.018 1390.56H609.692C609.692 1390.56 609.255 1338.1 608.381 1313.7C608.381 1309.33 607.944 1301.11 607.856 1296.96C576.292 1302.22 544.327 1304.69 512.331 1304.35C513.03 1057.6 513.074 810.91 512.462 564.278ZM965.607 631.736H1046.92V920.28H964.776L965.607 631.736Z" stroke="#D3D4E5" stroke-width="1.5"/>
<circle cx="512" cy="512" r="468.75" stroke="#D7433F" stroke-width="86.5"/>
<line x1="182.096" y1="204.504" x2="873.926" y2="836.846" stroke="#D7433F" stroke-width="86.5"/>
</g>
</svg>
